<svg id="_0148_rocket_launch_1" xmlns="http://www.w3.org/2000/svg" viewBox="0 0 500 500" data-imageid="rocket-launch-1-15" imageName="Rocket Launch 1" class="illustrations_image" style="width: 151px;"><defs><style>.cls-1_rocket-launch-1-15{fill:#fff;}.cls-2_rocket-launch-1-15{opacity:.42;}.cls-2_rocket-launch-1-15,.cls-3_rocket-launch-1-15,.cls-4_rocket-launch-1-15,.cls-5_rocket-launch-1-15,.cls-6_rocket-launch-1-15,.cls-7_rocket-launch-1-15{fill:none;}.cls-8_rocket-launch-1-15{fill:#e6e6e6;}.cls-3_rocket-launch-1-15{opacity:.22;}.cls-4_rocket-launch-1-15{opacity:.32;}.cls-5_rocket-launch-1-15{opacity:.08;}.cls-6_rocket-launch-1-15{opacity:.3;}.cls-9_rocket-launch-1-15{fill:#24285b;}.cls-10_rocket-launch-1-15{fill:#000001;}.cls-7_rocket-launch-1-15{opacity:.34;}.cls-11_rocket-launch-1-15{fill:#ffd200;}.cls-12_rocket-launch-1-15{fill:#68e1fd;}</style></defs><g id="smoke_rocket-launch-1-15"><g class="cls-2_rocket-launch-1-15"><path class="cls-8_rocket-launch-1-15" d="m93.36,459.22s-46.32,3.24-65.35-4.57c-19.03-7.81-5.37-30.25,13.18-35.13,18.54-4.88,29.77,21.96,38.06-2.93,8.3-24.89,29.92-37.19,43.75-20.3,13.83,16.89,27.98,22.25,42.62,7.13s28.12-2.76,34.07,19.36c5.95,22.12,74.75-20.33,101.1-12.04,26.35,8.3,46.36,32.69,62.46,6.34s35.13-33.18,45.87-17.57c10.74,15.62,14.15,34.16,33.18,20.01s44.89-1.46,37.57,15.13c-7.32,16.59-56.39,22.19-56.39,22.19,0,0-284.79-14.02-330.13,2.39Z"/></g><path class="cls-8_rocket-launch-1-15" d="m232.22,375.29s10.27,34.3-9.74,44.39c-20.01,10.08-32.09-5.65-52.95,8.26s-9.88-34.41-41.72-32.21-19.89,27.45-19.89,27.45c0,0-27.43-26.75-41.65-3.5-14.22,23.26-7.36,45.22,56.74,38.63,64.09-6.59,111.14,2.37,166.67,1.19,55.53-1.19,157.63,9.79,163.12-20.95s-23.06-44.37-52.7-27.12c-29.64,17.24-24.69-22.48-59.01-4.26s-74.9,39.1-85.28-41.28l-23.58,9.42Z"/></g><g id="bg_rocket-launch-1-15"><g class="cls-6_rocket-launch-1-15"><path class="cls-8_rocket-launch-1-15" d="m167.21,54.82c-73.47,16.19-122.43,87.11-108.87,161.11,6.47,35.32,27.24,70.37,79.43,86.73,125.25,39.28,266.43,19.67,291.32-57.63,24.89-77.3,8.78-127.07-51.97-165.87-39.24-25.06-133.15-41.26-209.91-24.34Z"/></g><path class="cls-8_rocket-launch-1-15" d="m469.48,177.64c0-6.15-4.98-11.13-11.13-11.13-.61,0-1.2.06-1.79.16-2.53-4.7-7.5-7.9-13.21-7.9-.19,0-.37.02-.55.03.35-1.38.55-2.83.55-4.32,0-9.83-7.97-17.81-17.81-17.81s-17.81,7.97-17.81,17.81c0,1.49.2,2.93.55,4.32-.18,0-.36-.03-.55-.03-8.29,0-15,6.72-15,15s6.72,15,15,15h52.07v-.1c5.45-.71,9.68-5.37,9.68-11.03Z"/><path class="cls-8_rocket-launch-1-15" d="m107.13,249.29c0-6.25-5.07-11.32-11.32-11.32-.62,0-1.22.06-1.82.16-2.58-4.78-7.63-8.03-13.44-8.03-.19,0-.37.02-.56.03.35-1.41.56-2.87.56-4.39,0-10-8.11-18.11-18.11-18.11s-18.11,8.11-18.11,18.11c0,1.52.21,2.98.56,4.39-.19,0-.37-.03-.56-.03-8.43,0-15.26,6.83-15.26,15.26s6.83,15.26,15.26,15.26h52.95v-.11c5.55-.72,9.84-5.46,9.84-11.21Z"/><circle class="cls-11_rocket-launch-1-15" cx="148.27" cy="120.43" r="22.72"/><g class="cls-3_rocket-launch-1-15"><circle class="cls-11_rocket-launch-1-15" cx="148.27" cy="120.43" r="36.8"/></g></g><g id="rocket_rocket-launch-1-15"><path class="cls-11_rocket-launch-1-15" d="m196.7,126.52l-1.59,3.87c-2.58,6.29-3.91,13.02-3.91,19.82v188.6h19.69v-188.6c0-6.8-1.33-13.53-3.91-19.82l-1.59-3.87c-1.59-3.88-7.1-3.88-8.69,0Z"/><path class="cls-12_rocket-launch-1-15 targetColor" d="m254.7,41.45l-.19-.2c-2.2-2.28-6.08-2.28-8.28,0l-.19.2c-16.12,16.73-25.01,38.31-25.01,60.65v242.74c0,2.8,2.47,5.08,5.53,5.08h23.82s23.82,0,23.82,0c3.05,0,5.53-2.27,5.53-5.08V102.1c0-22.34-8.9-43.91-25.01-60.65Z" style="fill: rgb(168, 126, 71);"/><g class="cls-5_rocket-launch-1-15"><polygon class="cls-10_rocket-launch-1-15" points="257.53 156.83 279.71 167.26 279.71 263.44 239.65 210.13 257.53 156.83"/></g><path class="cls-12_rocket-launch-1-15 targetColor" d="m253.27,151.49l-.13-.14c-1.48-1.67-4.08-1.67-5.55,0l-.13.14c-10.81,12.22-16.78,27.98-16.78,44.3v177.3c0,2.05,1.66,3.71,3.71,3.71h15.98s15.98,0,15.98,0c2.05,0,3.71-1.66,3.71-3.71v-177.3c0-16.32-5.97-32.08-16.78-44.3Z" style="fill: rgb(168, 126, 71);"/><g class="cls-4_rocket-launch-1-15"><path class="cls-1_rocket-launch-1-15" d="m253.27,151.49l-.13-.14c-1.48-1.67-4.08-1.67-5.55,0l-.13.14c-10.81,12.22-16.78,27.98-16.78,44.3v177.3c0,2.05,1.66,3.71,3.71,3.71h15.98s15.98,0,15.98,0c2.05,0,3.71-1.66,3.71-3.71v-177.3c0-16.32-5.97-32.08-16.78-44.3Z"/></g><path class="cls-11_rocket-launch-1-15" d="m304.04,126.52l1.59,3.87c2.58,6.29,3.91,13.02,3.91,19.82v188.6h-19.69v-188.6c0-6.8,1.33-13.53,3.91-19.82l1.59-3.87c1.59-3.88,7.1-3.88,8.69,0Z"/><rect class="cls-9_rocket-launch-1-15" x="279.71" y="167.26" width="10.14" height="30.29" transform="translate(569.56 364.81) rotate(-180)"/><g class="cls-5_rocket-launch-1-15"><rect class="cls-10_rocket-launch-1-15" x="289.85" y="156.83" width="19.69" height="51.11" transform="translate(599.38 364.76) rotate(-180)"/></g><path class="cls-9_rocket-launch-1-15" d="m230.68,215.13l-12.97,63.75c-2.89,14.22-9.97,27.25-20.32,37.42l-23.92,23.5c-2.45,2.41-4.25,5.41-5.23,8.71l-2.48,8.41c-1.48,5.01,1.98,10.12,7.17,10.62l57.75,5.55v-157.96Z"/><path class="cls-9_rocket-launch-1-15" d="m270.06,215.13l12.97,63.75c2.89,14.22,9.97,27.25,20.32,37.42l23.92,23.5c2.45,2.41,4.25,5.41,5.23,8.71l2.48,8.41c1.48,5.01-1.98,10.12-7.17,10.62l-57.75,5.55v-157.96Z"/><rect class="cls-9_rocket-launch-1-15" x="210.89" y="167.26" width="10.14" height="30.29"/><g class="cls-5_rocket-launch-1-15"><rect class="cls-10_rocket-launch-1-15" x="191.2" y="156.83" width="19.69" height="51.11"/></g><path class="cls-9_rocket-launch-1-15" d="m242.47,333.24l-11.08,15.38c-4.15,5.76-6.39,12.69-6.39,19.79v22.77h50.73v-22.77c0-7.1-2.23-14.03-6.39-19.79l-11.08-15.38c-3.89-5.39-11.92-5.39-15.8,0Z"/><rect class="cls-9_rocket-launch-1-15" x="239.65" y="180.68" width="20.56" height="8.33"/><g class="cls-7_rocket-launch-1-15"><rect class="cls-1_rocket-launch-1-15" x="237.31" y="75.81" width="26.12" height="62.09" rx="9.11" ry="9.11"/></g></g></svg>